<?xml version="1.0" encoding="UTF-8" standalone="no"?>
<svg
   id="svg130"
   width="768"
   height="768"
   preserveAspectRatio="none"
   style="display:block"
   version="1.1"
   viewBox="0 0 2048 2048"
   sodipodi:docname="whale-time-opt.svg"
   inkscape:version="1.4.2 (ebf0e940, 2025-05-08)"
   xmlns:inkscape="http://www.inkscape.org/namespaces/inkscape"
   xmlns:sodipodi="http://sodipodi.sourceforge.net/DTD/sodipodi-0.dtd"
   xmlns="http://www.w3.org/2000/svg"
   xmlns:svg="http://www.w3.org/2000/svg">
  <sodipodi:namedview
     id="namedview1"
     pagecolor="#ffffff"
     bordercolor="#000000"
     borderopacity="0.25"
     inkscape:showpageshadow="2"
     inkscape:pageopacity="0.0"
     inkscape:pagecheckerboard="0"
     inkscape:deskcolor="#d1d1d1"
     inkscape:zoom="0.93024663"
     inkscape:cx="381.61923"
     inkscape:cy="392.36906"
     inkscape:window-width="1280"
     inkscape:window-height="749"
     inkscape:window-x="0"
     inkscape:window-y="38"
     inkscape:window-maximized="0"
     inkscape:current-layer="svg130" />
  <defs
     id="defs16">
    <linearGradient
       id="Gradient1"
       x1="767.301"
       x2="782.39"
       y1="1315.25"
       y2="1340.53"
       gradientUnits="userSpaceOnUse">
      <stop
         id="stop1"
         class="stop0"
         offset="0"
         stop-color="#591A1C"
         stop-opacity="1" />
      <stop
         id="stop2"
         class="stop1"
         offset="1"
         stop-color="#8F2D2B"
         stop-opacity="1" />
    </linearGradient>
    <linearGradient
       id="Gradient2"
       x1="1319.03"
       x2="1319.7"
       y1="555.444"
       y2="585.343"
       gradientUnits="userSpaceOnUse">
      <stop
         id="stop3"
         class="stop0"
         offset="0"
         stop-color="#DBA8D0"
         stop-opacity="1" />
      <stop
         id="stop4"
         class="stop1"
         offset="1"
         stop-color="#E4CEE8"
         stop-opacity="1" />
    </linearGradient>
    <linearGradient
       id="Gradient3"
       x1="1352.44"
       x2="1348.49"
       y1="524.205"
       y2="587.117"
       gradientUnits="userSpaceOnUse">
      <stop
         id="stop5"
         class="stop0"
         offset="0"
         stop-color="#C592B7"
         stop-opacity="1" />
      <stop
         id="stop6"
         class="stop1"
         offset="1"
         stop-color="#CDB2CA"
         stop-opacity="1" />
    </linearGradient>
    <linearGradient
       id="Gradient4"
       x1="1212.63"
       x2="1199.26"
       y1="1445.53"
       y2="1437.26"
       gradientUnits="userSpaceOnUse">
      <stop
         id="stop7"
         class="stop0"
         offset="0"
         stop-color="#0A0504"
         stop-opacity="1" />
      <stop
         id="stop8"
         class="stop1"
         offset="1"
         stop-color="#32090A"
         stop-opacity="1" />
    </linearGradient>
    <linearGradient
       id="Gradient5"
       x1="829.2"
       x2="822.768"
       y1="1363.28"
       y2="1367.37"
       gradientUnits="userSpaceOnUse">
      <stop
         id="stop9"
         class="stop0"
         offset="0"
         stop-color="#1A0201"
         stop-opacity="1" />
      <stop
         id="stop10"
         class="stop1"
         offset="1"
         stop-color="#2A0304"
         stop-opacity="1" />
    </linearGradient>
    <linearGradient
       id="Gradient6"
       x1="1045.79"
       x2="870.388"
       y1="1302.76"
       y2="1473.82"
       gradientUnits="userSpaceOnUse">
      <stop
         id="stop11"
         class="stop0"
         offset="0"
         stop-color="#99403D"
         stop-opacity="1" />
      <stop
         id="stop12"
         class="stop1"
         offset="1"
         stop-color="#C0403C"
         stop-opacity="1" />
    </linearGradient>
    <linearGradient
       id="Gradient7"
       x1="1246.95"
       x2="1197.81"
       y1="964.773"
       y2="950.27"
       gradientUnits="userSpaceOnUse">
      <stop
         id="stop13"
         class="stop0"
         offset="0"
         stop-color="#BCBBBC"
         stop-opacity="1" />
      <stop
         id="stop14"
         class="stop1"
         offset="1"
         stop-color="#E2E1E1"
         stop-opacity="1" />
    </linearGradient>
    <linearGradient
       id="Gradient8"
       x1="825.651"
       x2="765.739"
       y1="1106.42"
       y2="1100.28"
       gradientUnits="userSpaceOnUse">
      <stop
         id="stop15"
         class="stop0"
         offset="0"
         stop-color="#992F2E"
         stop-opacity="1" />
      <stop
         id="stop16"
         class="stop1"
         offset="1"
         stop-color="#CB4B46"
         stop-opacity="1" />
    </linearGradient>
  </defs>
  <style
     id="style1">:root{color-scheme:light dark;}</style>
  <path
     id="path16"
     fill="light-dark(#4aa4e1, #e5b6e0)"
     d="M0 0h2048v2048H0V0z" />
  <path
     id="path17"
     fill="#010101"
     d="M593.61 887.528c-33.238-7.048-68.71-12.935-103.944-21.595-28.511-7.008-73.899-1.271-65.079-52.46 22.103-69.637 101.285-147.532 163.173-184.744a1030.803 1030.803 0 0 1 66.921-36.473c10.043-5.006 38.747-18.017 46.857-24.25 14.647-12.191 26.615-28.451 40.037-42.057 18.803-19.235 39.116-38.233 60.478-54.635 102.516-78.71 236.657-105.289 362.977-83.89 55.26 9.363 108.61 28.782 158.99 53.073 12.94 6.239 30.81 8.557 44.39 13.885 43.91 13.755 80.13 42.453 103.14 82.257 15.41 23.857 10.26 47.971 10.24 74.233-.01 14.164 6.94 33.388 7.39 49.634 3 109.908-33.29 220.546-106.72 303.372-11.43 12.896-24.74 22.59-35.99 34.571 77.62 85.441 110.95 208.381 21.65 299.251-18.56 18.9-54.36 31.58-80.88 31.37-8.11 21.54-12.798 31.307-21.974 50.054-8.33 16.671-16.265 29.382-10.202 35.521 38.44 11.29 72.966 19.485 104.956 44.695 11.98 8.74 25.37 20.07 32.29 33.36 5.4 10.36 9.59 23.62-2.76 30.79-39.32 22.82-81.24 44.6-124.21 59.85-10.02 3.55-20.6 5.19-30.37 8.47l-17.71 6.02c-25.67 7.96-47.24 10.35-73.71 13.31-10.41 50.82-23.83 93.27-43.67 141.2-42.43 102.46-114.891 26.02-147.74-35.08-37.299-69.38-24.869-127.93-5.362-198.92-78.786-32.78-161.637-91.67-217.466-156.39-10.834-11.412-32.363-52.77-43.549-60.05-37.338-24.29-65.071-38.67-85.748-82.94-23.228-49.72-21.578-106.19-2.751-158.42 3.818-10.44-1.085-40.56-2.333-53.59-.55-14.656-2.83-29.861-3.244-43.956-.692-23.633-.238-52.081 1.923-75.466z" />
  <path
     id="path18"
     fill="#282828"
     d="m 909.288,430.235 c 4.55,-2.78 34.095,-13.739 40.191,-15.715 13.464,-4.364 35.317,-7.673 49.92,-10.253 14.121,-2.496 34.451,-7.434 47.271,-9.159 26.77,-3.603 93.06,-1.239 116.18,10.541 20.43,5.844 44.45,1.624 62.94,15.739 6.51,0.389 39.39,7.423 44.88,10.096 l 1.33,0.635 0.81,0.416 c 5.8,2.199 21.46,7.52 25.18,10.949 l 2.501,1.32645 c 12.66,5.729 26.259,11.07655 39.459,16.08455 13.52,5.131 26.55,6.227 40.13,12.188 l -1.79,0.957 c 4.88,2.62 7.11,1.411 9.27,4.641 -0.46,3.957 -1.36,4.73 1.28,7.423 7.19,7.336 15.93,10.227 22.91,17.871 1.219,1.673 1.805,2.236 3.025,3.772 -1.4,2.656 -4.295,3.42 -4.295,3.42 -1.26,1.416 -2.69,2.565 -4.07,3.867 14.97,9.648 29.5,16.415 40.4,30.601 -10.55,2.037 -13.01,-2.646 -21.43,-8.577 -9.73,-8.379 -32.025,-15.61 -38.773,-17.46 -3.934,-0.67 -9.705,-1.217 -13.523,-1.6 -3.836,-0.22 -14.863,0.132 -20.228,0.577 -4.71,0.822 -14.342,2.782 -18.59,3.208 -4.588,0.83 -26.616,4.606 -40.416,7.32 -5.19,1.02 -10.4,0.926 -14.89,1.699 -0.12,3.319 0.5,4.482 -2.26,6.681 -9.24,7.365 -26.96,12.013 -38.39,12.489 -6.2,1.556 -12.651,3.205 -17.69,4.675 -4.8,1.528 -11.576,4.268 -18.295,6.713 -9.272,3.273 -17.855,6.832 -35.995,11.398 -6.93,1.746 -32.01,-0.433 -36.18,3.626 -7.976,7.966 -13.66,25.63 -23.04,32.048 -24.0109,16.26293 -50.9538,27.70406 -79.33,33.687 -11.92,2.397 -37.742,3.495 -47.307,6.624 -13.24,14.44 -26.401,27.295 -40.654,40.865 -13.719,13.061 -25.751,30.202 -37.712,45.002 -4.406,5.453 -9.087,13.225 -13.743,18.176 l -1.398,-0.752 c -4.725,3.383 -23.958,34.654 -25.363,41.607 -4.538,22.459 -1.532,45.646 -0.148,68.306 0.42,9.592 2.119,19.947 2.021,29.439 -0.191,18.521 -0.67,37.088 -0.634,55.62 0.237,9.144 -1.74,19.369 -0.563,28.592 1.183,0.723 3.339,1.702 4.802,1.034 22.005,-10.047 38.131,-22.721 62.929,-26.588 15.405,-2.402 27.575,-13.26 45.4,-9.958 l 0.462,1.361 c -2.426,0.533 -3.052,0.631 -5.529,0.775 2.903,0.241 5.876,0.457 8.768,0.74 7.744,-0.993 13.072,-1.182 20.919,-1.358 -1.831,1.839 -5.218,5.446 -7.114,6.98 -2.169,0.366 -4.372,0.665 -6.49,1.219 -26.545,2.575 -46.488,9.582 -71.156,19.135 -5.432,2.103 -15.078,5.349 -19.823,8.458 -5.191,2.337 -8.757,4.543 -14.508,4.162 -3.365,1.292 -3.131,1.217 -5.685,3.8 3.386,1.035 3.903,0.479 5.067,3.123 1.747,3.97 3.826,5.784 3.488,10.325 -5.735,5.854 -17.145,13.094 -23.819,18.714 -11.326,9.54 -23.977,20.42 -34.119,31.16 l -4.415,2.88 c 6.91,5.44 6.54,6.03 12.131,12.74 -2.64,3.17 -5.236,6.37 -7.785,9.62 -3.153,7.87 -10.054,14.68 -14.24,21.71 -4.36,7.32 -10.702,19.26 -13.914,27.08 0.445,1.03 1.001,2.33 1.669,3.89 -1.816,6.72 -5.075,14.01 -7.419,20.46 -1.986,5.45 -4.237,6.23 -4.51,11.16 -0.018,0.32 -0.96,3.67 -0.967,3.7 l -1.387,0.84 c -4.076,-2.09 -26.451,-24.56 -29.296,-29.67 -2.572,-0.98 -2.475,-1.14 -5.166,-0.91 3.388,7.49 27.834,26.02 29.313,30.73 0.332,0.38 0.664,0.77 0.996,1.16 14.664,23.98 37.375,54.48 45.673,81.12 11.14,35.77 -19.831,63.24 -54.554,61.75 -26.35,-1.13 -47.265,-1.53 -71.93,-11.87 -10.317,-4.33 -13.622,-6.903 -22.533,-12.983 -3.706,-2.214 -7.186,-3.619 -12.798,-7.207 -20.322,-16.31 -50.275,-48.94 -59.832,-72.81 -13.267,-33.14 -13.888,-91.31 0.252,-124.95 5.534,-13.29 12.591,-30.71 18.846,-43.25 5.342,-10.71 37.344,-61.025 47.498,-63.12 -2.017,-3.796 -1.967,-5.432 -6.204,-6.339 -16.66,5.013 -40.39,44.719 -50.478,57.949 -2.99,0.89 -5.918,0.857 -8.06,-1.14 l -0.992,-4.27 c -0.062,-7.687 -0.533,-21.634 -0.565,-30.135 -0.085,-22.6 -1.093,-45.426 0.829,-67.808 1.40174,-15.29655 3.17024,-30.55728 5.304,-45.769 3.988,-27.04 19.039,-106.124 11.34,-128.629 l -1.348,-0.378 c -11.651,17.316 -21.753,103.481 -27.64,128.908 -30.611,-7.563 -61.254,-7.968 -90.872,-20.409 -1.61,-0.677 -12.491,-1.029 -14.912,-1.205 -13.84,-1.007 -26.267,-0.193 -39.068,-6.505 -7.396,-6.686 -9.767,-8.052 -12.214,-18.437 -0.045,-4.321 -0.697,-14.857 1.129,-17.891 0.994,-0.044 5.376,-12.184 5.813,-13.46 15.82,-46.297 58.602,-82.569 97.195,-111.807 8.86,-11.238 39.028,-31.82 51.779,-39.296 20.612,-12.086 39.955,-25.434 61.243,-36.484 19.621,-10.185 48.405,-20.204 65.042,-33.215 7.637,-5.972 25.073,-27.644 32.953,-36.307 33.259,-36.565 73.471,-68.559 118.522,-89.512 4.768,2.031 9.446,2.597 13.549,5.51 l 7.372,-4.582 c 2.136,-0.716 18.14,-10.114 24.537,-12.739 -3.754,-2.11 -2.279,-3.925 -6.469,-6.565 z"
     sodipodi:nodetypes="cccccccccccccccccccccccccccccccccccccccccccscccsccccccccccccccccccccccscccccccccccccscccccsccccccccccccccccccccc" />
  <path
     id="path19"
     fill="#FEFEFE"
     d="M915.757 436.8c5.191-2.272 11.055-4.888 16.386-6.664 32.369-10.784 102.497-18.588 122.047 17.773 4.11 12.897 5.7 22.705-.74 35.269-4.98 5.369-8.11 8.27-13.67 13.066l-15.22 10.097c-20.03 10.735-42.115 23.062-63.341 31.066-9.497 3.049-19.598 6.122-28.999 9.321-27.842 6.268-47.64 12.621-71.814-8.749-16.851-23.002-12.168-38.647-.715-61.898 6.495-7.941 16.095-15.504 24.157-21.96l7.372-4.582c2.136-.716 18.14-10.114 24.537-12.739z" />
  <path
     id="path20"
     fill="#240403"
     d="M979.111 942.962c7.744-.993 13.072-1.182 20.919-1.358-1.831 1.839-5.218 5.446-7.114 6.98-2.169.366-4.372.665-6.49 1.219-26.545 2.575-46.488 9.582-71.156 19.135-5.432 2.103-15.078 5.349-19.823 8.458-5.191 2.337-8.757 4.543-14.508 4.162-3.365 1.292-3.131 1.217-5.685 3.8 3.386 1.035 3.903.479 5.067 3.123 1.747 3.97 3.826 5.784 3.488 10.325-5.735 5.854-17.145 13.094-23.819 18.714-11.326 9.54-23.977 20.42-34.119 31.16l-4.415 2.88c6.91 5.44 6.54 6.03 12.131 12.74-2.64 3.17-5.236 6.37-7.785 9.62-3.153 7.87-10.054 14.68-14.24 21.71-4.36 7.32-10.702 19.26-13.914 27.08.445 1.03 1.001 2.33 1.669 3.89-1.816 6.72-5.075 14.01-7.419 20.46-1.986 5.45-4.237 6.23-4.51 11.16-.018.32-.96 3.67-.967 3.7l-1.387.84c-4.076-2.09-26.451-24.56-29.296-29.67-2.572-.98-2.475-1.14-5.166-.91 3.388 7.49 27.834 26.02 29.313 30.73-17.241-11.86-25.846-25.02-39.477-40.2-3.989-4.44-13.822-11.84-16.749-15.84 2.474-.1 20.146 16.62 23.278 19.44 1.697-1.15 7.716-19.093 10.208-25.034 3.136-7.209 15.989-30.958 21.817-39.276 4.13-6.14 6.63-9.561 10.672-15.06 4.42-5.731 7.986-9.318 10.892-12.01 5.122-5.164 6.001-6.6 6.446-7 5.606-5.09 10.524-8.25 14.811-14.9 0 0 .387-.917.387-2.332-.534-1.692-.668-2.125-1.24-3.21-3.743-7.656-10.343-11.575-8.641-19.952 3.523-3.119 18.816-15.186 22.511-16.444 7.536.555 10.397 9.737 16.022 13.597 7.564 4.949 9.019-4.182 14.641-6.309 34.859-13.19 68.476-27.144 104.88-36.158 2.903.241 5.876.457 8.768.74z" />
  <path
     id="path21"
     fill="url(#Gradient8)"
     d="M821.456 1051.56c6.91 5.44 6.54 6.03 12.131 12.74-2.64 3.17-5.236 6.37-7.785 9.62-19.877 18.47-37.39 59.56-41.304 86.6-6.221-11.09-11.445-16.52-20.89-25.06-7.947-7.2-11.24-10.98-5.434-20.72l2.224-3.96c7.992-6.32 10.085-13.44 16.162-21.73-1.192 5.97-4.813 8.72-5.284 13.34l.721.76c7.618-1.59 4.174-5.54 11.627-9.32 3.503-4.66 23.705-30.04 25.015-33.62-1.969-.34-1.968-.31-3.902-.95 4.006-5.72 9.902-5.15 16.719-7.7z" />
  <path
     id="path22"
     fill="#DE7E7D"
     d="M760.398 1110.78c7.992-6.32 10.085-13.44 16.162-21.73-1.192 5.97-4.813 8.72-5.284 13.34l.721.76c7.618-1.59 4.174-5.54 11.627-9.32-10.612 16.73-10.639 23.49-27.027 34.51 1.365-5.34 2.404-8.04 1.577-13.6l2.224-3.96z" />
  <path
     id="path23"
     fill="#EA8F8E"
     d="M875.254 985.358c3.386 1.035 3.903.479 5.067 3.123 1.747 3.97 3.826 5.784 3.488 10.325-5.735 5.854-17.145 13.094-23.819 18.714-11.326 9.54-23.977 20.42-34.119 31.16l-4.415 2.88c-6.817 2.55-12.713 1.98-16.719 7.7 1.934.64 1.933.61 3.902.95-1.31 3.58-21.512 28.96-25.015 33.62-7.453 3.78-4.009 7.73-11.627 9.32l-.721-.76c.471-4.62 4.092-7.37 5.284-13.34 2.246-6.45 14.585-21.67 19.329-27.74 5.885-9.87 10.005-16.86 17.019-26.03 5.57-7.73 22.572-22.53 30.382-28.55 12.813-10.147 17.087-14.667 31.964-21.372z" />
  <path
     id="path24"
     fill="#792C2B"
     d="M979.111 942.962c7.744-.993 13.072-1.182 20.919-1.358-1.831 1.839-5.218 5.446-7.114 6.98-2.169.366-4.372.665-6.49 1.219-26.545 2.575-46.488 9.582-71.156 19.135-5.432 2.103-15.078 5.349-19.823 8.458-5.191 2.337-8.757 4.543-14.508 4.162 4.232-2.984 7.636-4.816 9.975-9.325 13.085-10.358 70.334-26.108 88.197-29.271z" />
  <path
     id="path25"
     fill="#B33B39"
     d="m788.398 1059.47 7.491 1.84c-4.744 6.07-17.083 21.29-19.329 27.74-6.077 8.29-8.17 15.41-16.162 21.73-1.167-12.55 19.897-40.92 28-51.31z" />
  <path
     id="path26"
     fill="#401110"
     d="M843.29 1006.73c1.809-20.431 32.691-24.844 46.237-33.59l1.387-.907c-2.339 4.509-5.743 6.341-9.975 9.325-3.365 1.292-3.131 1.217-5.685 3.8-14.877 6.705-19.151 11.225-31.964 21.372z" />
  <path
     id="path27"
     fill="#792C2B"
     d="M788.398 1059.47c6.248-9.24 13.02-22.89 24.51-24.19-7.014 9.17-11.134 16.16-17.019 26.03l-7.491-1.84z" />
  <path
     id="path28"
     fill="#E0E0E0"
     d="M834.733 972.602c4.71 1.211 10.728 7.739 11.52 12.751-2.272 7.726-14.672 13.877-21.992 18.687-.906.86-.3.5-2.007.69-3.605-4.11-6.821-9.908-9.724-14.66 6.405-5.667 15.295-12.143 22.203-17.468z" />
  <path
     id="path29"
     fill="#343433"
     d="M870.299 448.611c4.768 2.031 9.446 2.597 13.549 5.51-8.062 6.456-17.662 14.019-24.157 21.96-2.763-4.093-5.135-8.851-9.673-10.066l-1.625 1.335c.019 4.251 5.593 13.291 1.505 15.323-37.618 18.691-67.651 52.588-97.61 81.493-4.994 4.817-13.495 8.799-17.962 13.877-18.015 20.477-38.702 33.791-63.312 45.241-8.174 3.803-17.66 7.905-25.473 12.539-7.127 3.98-39.153 27.147-43.11 28.561a51.389 51.389 0 0 1-3.393-2.877c-3.061 2.535-1.877 2.253-3.152 6.914-8.789 13.836-24.087 24.285-38.937 30.746l-1.808 1.803c-3.044.758-2.839.667-5.889-.198-11.263-9.47 3.623-23.13 9.238-30.419-2.825.8-13.282 11.347-17.24 14.545l-.49-1.473c8.86-11.238 39.028-31.82 51.779-39.296 20.612-12.086 39.955-25.434 61.243-36.484 19.621-10.185 48.405-20.204 65.042-33.215 7.637-5.972 25.073-27.644 32.953-36.307 33.259-36.565 73.471-68.559 118.522-89.512z" />
  <path
     id="path30"
     fill="#9A9A97"
     d="M556.949 699.167c-5.488-.119-6.185.163-9.21-4.505-1.795-14.587 29.671-41.819 44.476-34.788 2.962 2.897 2.802 4.24 3.671 8.547-8.789 13.836-24.087 24.285-38.937 30.746z" />
  <path
     id="path31"
     fill="#010101"
     d="M958.907 656.537c-6.185 2.291-27.268 11.611-32.004 7.526 4.125-28.335 93.607-30.14 116.117-39.514 24.82-10.333 48.99-19.475 71.91-33.942 12.653-10.16 11.832-8.702 19.28-1.905-9.61 6.246-17.72 13.312-27.1 19.73a223.792 223.792 0 0 1-79.33 33.687c-11.92 2.397-37.742 3.495-47.307 6.624-4.212-1.116-2.984-1.461-6.311-.082-5.7 2.057-10.323 4.293-15.255 7.876z" />
  <path
     id="path32"
     fill="#FEFEFE"
     d="M961.901 555.66c4.432.541 7.884.828 12.214 2.045 8.641 4.232 11.954 7.696 15.401 17.006 1.123 8.204 2.238 10.438-2.085 17.635-3.541 5.673-5.248 8.996-11.348 11.922-4.287 1.231-9.439 2.312-13.893 1.651a23.01 23.01 0 0 1-15.389-9.6c-9.899-14.357-4.254-27.998 9.102-36.972 2.338-.066 3.673-1.865 5.998-3.687z" />
  <path
     id="path33"
     fill="#010101"
     d="M929.473 621.156c-30.004-26.891 11.64-65.99 26.43-61.809-13.356 8.974-19.001 22.615-9.102 36.972a23.01 23.01 0 0 0 15.389 9.6c4.454.661 9.606-.42 13.893-1.651.952 2.733 3.139 7.552 1.511 10.023-7.621 11.561-29.318 10.002-40.567 8.672 0 0-.59-.112-1.543-.285-.92-.168-1.504-.263-2.474-.558-1.024-.267-1.386-.384-3.537-.964z" />
  <path
     id="path34"
     fill="#FEFEFE"
     d="M930.976 594.007c13.228.788 21.633 10.752 8.465 20.286-14.383.56-22.562-12.136-8.465-20.286z" />
  <path
     id="path35"
     fill="#9A9A97"
     d="M1162.85 405.649c20.43 5.844 44.45 1.624 62.94 15.739 7.9 25.834-23.18 11.704-35.41 8.432-9.58-2.563-33.3-7.875-33.45-19.437 2.48-3.833 1.37-2.564 5.92-4.734z" />
  <path
     id="path36"
     fill="#010101"
     d="M932.22 546.728c9.401-3.199 19.502-6.272 28.999-9.321l1.985 2.216c-.384 3.875-1.02 2.492.776 4.842 5.736-1.381 11.018-3.576 15.988-.728 2.435 6.825-.906 9.891-5.853 13.968-4.33-1.217-7.782-1.504-12.214-2.045-6.851-.348-10.771.34-17.09 3.139-6.63-1.477-8.628-6.251-12.591-12.071z" />
  <path
     id="path37"
     fill="#19191a"
     d="M989.516 574.711c2.191-2.194 4.414-2.559 7.398-3.522 8.066 1.791 5.906 13.037 6.966 19.957 1.59 10.385-.35 16.584-8.043 23.627-4.225 1.193-3.688 1.839-6.474.328-2.02-2.126-5.036-5.374-5.102-9.804.479-4.739 1.634-5.15 3.17-12.951 4.323-7.197 3.208-9.431 2.085-17.635z" />
  <path
     id="path38"
     fill="#E0E0E0"
     d="M944.811 558.799c6.319-2.799 10.239-3.487 17.09-3.139-2.325 1.822-3.66 3.621-5.998 3.687-14.79-4.181-56.434 34.918-26.43 61.809 4.439 2.504 5.557 3.391 10.392 4.552l-.655 2.713c-9.372-4.355-18.695-8.43-22.886-18.478-10.586-25.38 9.475-41.906 28.487-51.144z" />
  <path
     id="path39"
     fill="#010101"
     d="M1054.19 447.909c2.19-2.618 1.97-2.499 5.25-3.438 2.6.611 1.66-.153 3.07 2.116.54 9.168 3.09 35.223-.49 41.877-4.36 1.389-5.85-1.979-8.57-5.286 6.44-12.564 4.85-22.372.74-35.269z" />
  <path
     id="path40"
     fill="#19191a"
     d="M1238.31 549.972c8.3-6.215 19.395-11.941 25.686-14.684 7.384-2.632 9.787-3.105 14.964-4.486-.12 3.319.5 4.482-2.26 6.681-9.24 7.365-26.96 12.013-38.39 12.489z" />
  <path
     id="path41"
     fill="#B2B2B1"
     d="M1272.81 432.535c5.8 2.199 21.46 7.52 25.18 10.949-4.01 4.385-27.78 3.432-30.03-4.216 1.2-3.354 2.4-4.198 4.85-6.733z" />
  <path
     id="path42"
     fill="#010101"
     d="M850.497 553.432c-1.808-7.771 2.01-14.03 9.909-15.453.261 6.092 1.448 10.553-2.328 14.907-3.376 1.236-4.082.945-7.581.546z" />
  <path
     id="path43"
     fill="#19191A"
     d="m1024.56 506.341 15.22-10.097c1.64 4.423 1.38 8.504 1.54 13.268-5.78-.225-12.61.446-16.76-3.171z" />
  <path
     id="path44"
     fill="#787978"
     d="M939.865 625.708c4.06.511 8.499 1.191 12.581.901 5.343-.379 15.252-4.164 20.036-3.519-6.984 4.72-21.837 7.757-30.474 5.971a92.063 92.063 0 0 1-2.798-.64l.655-2.713z" />
  <path
     id="path45"
     fill="#343433"
     d="M974.162 648.661c-3.233 5.516-8.755 8.96-15.255 7.876 4.932-3.583 9.555-5.819 15.255-7.876z" />
  <path
     id="path46"
     fill="#343433"
     d="M809.744 544.547c6.531.444 16.365 1.072 21.312 5.34 17.574 15.165 1.13 49.809-10.836 63.515-11.98 13.723-29.166 28.087-46.965 30.064-8.381.844-23.014-14.077-28.9-19.881-.931-36.575 28.905-74.074 65.389-79.038z" />
  <path
     id="path47"
     fill="#343433"
     d="M726.935 655.496c27.062-.829 37.297 44.146 1.073 52.254-5.865.424-10.27.097-16.085-.227-19.386-20.294-12.308-47.007 15.012-52.027z" />
  <path
     id="path48"
     fill="#C4C2C2"
     d="m818.867 930.105 4.858 6.341c5.099 6.716 10.324 14.382 15.257 21.303-15.742 11.012-28.744 20.67-43.561 32.89-8.077-10.817-13.967-15.376-19.984-27.926 6.059-6.913 26.3-21.762 34.283-27.35l9.147-5.258z" />
  <path
     id="path49"
     fill="#B2B2B1"
     d="m818.867 930.105 4.858 6.341c-6.414 3.184-8.39 3.72-14.005-1.083l9.147-5.258z" />
  <path
     id="path50"
     fill="#9A9A97"
     d="M725.596 1139.9c18.412 3.23 43.787 28.28 54.575 43.41 1.509 2.12-.688 4.67-1.871 6.5-1.222.58-2.464.99-3.738 1.46-8.055-2.76-33.691-28-41.458-35.04-7.004-6.34-7.459-7.75-7.508-16.33z" />
  <path
     id="path51"
     fill="#9A9A97"
     d="M526.414 718.975c2.438-.098 2.556-.032 4.985.237 5.904 8.037-7.926 20.995-14.322 25.117-4.548-1.787-7.843-6.439-5.842-11.464 3.11-7.809 7.905-10.562 15.179-13.89z" />
  <path
     id="path52"
     fill="#9a9a97"
     d="M791.043 1198.45c5.727-.609 8.493 4.86 8.621 10.84-1.336 3.47-3.127 4.494-6.507 6.14-4.407-.736-6.819-3.478-8.894-6.91.893-4.792 2.53-9.618 6.78-10.07z" />
  <path
     id="path54"
     fill="#010101"
     d="M992.008 552.426c2.364.204 2.405.287 4.655 1.12 2.612 3.649 4.317 5.982 1.134 9.792-3.73.764-5.939 1.595-8.743-.943-.333-3.243 1.623-6.809 2.954-9.969z" />
  <path
     id="path56"
     fill="#19191A"
     d="M1192.29 439.355c6.32-1.531 13.87-.899 18.96 3.418-5.58.842-14.77.849-18.96-3.418z" />
  <path
     id="path58"
     fill="#FEFEFE"
     d="M1141.69 584.952c51.02-15.454 52.81 1.537 101.25 4.413 20.41 1.212 55.38-2.962 77.37-3.18 38.97-.387 70.05 4.349 107.93 12.262 15.14 3.163 24.89 3.712 40.46 9.027 3.86 18.101 7.96 36.674 8.75 55.363 4.99 117.649-44.99 251.204-137.34 326.769-12.79 10.464-30.14 23.024-41.13 34.014-1.18.76-2.87 1.76-3.96 2.65-14.19 9.62-27.86 20-40.94 31.08-5.2-5.66-14.13-18.66-20.41-26.05l-10.79-10.59c-2.86.79-5.73 1.5-8.63 2.12-33.82-31.842-66.69-54.613-112.05-66.734-42.55-15.861-56.8-14.623-102.17-14.492-7.847.176-13.175.365-20.919 1.358-2.892-.283-5.865-.499-8.768-.74 2.477-.144 3.103-.242 5.529-.775l-.462-1.361c-17.825-3.302-29.995 7.556-45.4 9.958-24.798 3.867-40.924 16.541-62.929 26.588-1.463.668-3.619-.311-4.802-1.034-1.177-9.223.8-19.448.563-28.592-.036-18.532.443-37.099.634-55.62.098-9.492-1.601-19.847-2.021-29.439-1.384-22.66-4.39-45.847.148-68.306 1.405-6.953 20.638-38.224 25.363-41.607l1.398.752c4.656-4.951 9.337-12.723 13.743-18.176 11.961-14.8 23.993-31.941 37.712-45.002 14.253-13.57 27.414-26.425 40.654-40.865 9.565-3.129 35.387-4.227 47.307-6.624a223.792 223.792 0 0 0 79.33-33.687c9.38-6.418 17.49-13.484 27.1-19.73l7.71-3.086-.23-.664z" />
  <path
     id="path59"
     fill="#010101"
     d="M970.343 942.222c2.477-.144 3.103-.242 5.529-.775l-.462-1.361c-17.825-3.302-29.995 7.556-45.4 9.958-24.798 3.867-40.924 16.541-62.929 26.588-1.463.668-3.619-.311-4.802-1.034-1.177-9.223.8-19.448.563-28.592-.036-18.532.443-37.099.634-55.62.098-9.492-1.601-19.847-2.021-29.439-1.384-22.66-4.39-45.847.148-68.306 1.405-6.953 20.638-38.224 25.363-41.607l1.398.752c-5.712 9.235-20.804 27.348-23.494 36.411-7.076 23.84-2.702 54.122-1.216 78.839 2.139 35.575.854 72.007-.034 107.656l1.26-.5c11.523-4.648 23.149-12.019 33.57-16.644 17.629-7.825 56.137-19.913 74.901-22.13-48.014-22.089-67.391-78.339-45.394-125.942 21.58-46.701 83.423-68.871 129.913-47.012 24.25 11.515 45.5 34.537 54.02 60.209a87.069 87.069 0 0 1-4.65 66.421c-10.49 20.849-24.86 37.218-46.8 46.32 43.9 7.827 78.39 19.957 115.67 45.348 5.01-6.123 9.86-11.865 14.26-18.467-2.41-3.153-4.54-5.154-5.05-9.01 1.82-7.724 18.67-27.083 24.53-33.682 19.24 4.757 32.04 18.772 47.46 30.562 3.67 2.807 6.48 7.114 8.54 11.216-5.78 11.682-18.79 27.264-27.84 36.879-3.61-1.696-7.36-3.393-10.92-5.164-5.42 5.753-8.57 9.924-13.33 16.304l9.12 10.31c-2.86.79-5.73 1.5-8.63 2.12-33.82-31.842-66.69-54.613-112.05-66.734-42.55-15.861-56.8-14.623-102.17-14.492-7.847.176-13.175.365-20.919 1.358-2.892-.283-5.865-.499-8.768-.74z" />
  <path
     id="path60"
     fill="#C4C2C2"
     d="M1008.17 764.319c14.57-1.875 30.47.828 44 6.326a89.764 89.764 0 0 1 49.13 48.541c16.83 41.329-2.73 92.248-44.31 109.809-2.19.925-5.17 1.345-7.39.35-5.17-10.751 12.18-16.308 18.3-21.636 29.89-26.032 32.51-71.334 6.54-101.113-13.54-15.527-31.77-22.63-51.69-25.273a75.841 75.841 0 0 0-36.304 6.353c-56.116 24.963-58.979 109.876.436 131.686l-.088 13.062c-84.519-22.268-80.549-154.454 21.376-168.105z" />
  <path
     id="path61"
     fill="#FEFEFE"
     d="M1011.01 790.349c9.62-.732 18.29-.205 27.58 2.606a63.33 63.33 0 0 1 37.77 31.271c16.96 32.677 4 69.421-27.97 86.311-.25-5.07-.86-9.223-1.54-14.224 4.67.291 16.05 1.444 19.13-1.449 8.84-8.328 7.32-44.541 1.06-52.725-4.71-6.172-33.44-4.858-41.77-4.905-14.64-.121-45.788-2.54-57.137 3.615-7.72 4.186-7.918 47.481.278 53.72 4.979 3.79 13.346 2.688 19.159 2.724-.373 4.94-.094 10.444.015 15.44-18.627-11.724-32.236-26.066-35.451-48.644a63.57 63.57 0 0 1 12.414-47.89c12.224-15.833 26.891-23.448 46.462-25.85z" />
  <path
     id="path62"
     fill="#C4C2C2"
     d="M993.741 847.482c9.739-.214 62.919-.812 67.489 2.625 3.1 7.494 1.95 28.038 1.84 36.958l-18.38-.216c-23.88.175-47.758.196-71.637.064-.796-13.019-1.632-25.797-.039-38.802 6.757-.365 13.928-.443 20.727-.629z" />
  <path
     id="path63"
     fill="url(#Gradient7)"
     d="M1213.92 930.503c4.34 2.369 6.86 4.014 10.92 6.854 8.41 5.887 26.52 17.515 32.02 25.375-5.96 10.216-13.68 18.208-21.55 27.053-11.24-10.553-21.24-19.714-33.36-29.386-2.67-1.155-6.29-4.15-8.75-5.98 7.54-8.915 11.53-15.956 20.72-23.916z" />
  <path
     id="path64"
     fill="#B2B2B1"
     d="M1224.84 937.357c8.41 5.887 26.52 17.515 32.02 25.375-5.96 10.216-13.68 18.208-21.55 27.053-11.24-10.553-21.24-19.714-33.36-29.386 10.54 1.441 27 25.217 37.22 17.999 22.97-16.224-10.05-28.036-14.33-41.041z" />
  <path
     id="path65"
     fill="#B2B2B1"
     d="M995.385 898.165c15.365-.404 28.545-.779 43.825-.279-.05 11.243-.42 24.123.51 35.199l-18.09.237-26.608.17.236-14.352c.01-6.631-.171-14.451.127-20.975z" />
  <path
     id="path66"
     fill="#E0E0E0"
     d="M996.491 904.591c8.099-.581 14.869-.504 23.009-.405.6 3.42 1.14 6.849 1.63 10.286 1.29 6.744.79 12.009.5 18.85l-26.608.17.236-14.352.695.248c.437-4.422.416-10.245.538-14.797z" />
  <path
     id="path67"
     fill="#C4C2C2"
     d="M1021.13 914.472c1.29 6.744.79 12.009.5 18.85l-26.608.17.236-14.352.695.248a756.709 756.709 0 0 0 17.667-.754c1.74 3.987 1.99 5.28 5.01 8.214l1.37-.177c1.85-3.912 1.24-7.743 1.13-12.199z" />
  <path
     id="path68"
     fill="#C4C2C2"
     d="M1196.37 970.64c5.76.991 20.03 13.724 25.31 18.08-5.43 5.419-9.13 8.933-13.62 15.09-4.81-1.74-20.16-15.666-24.87-19.743 4.27-4.606 8.74-8.993 13.18-13.427z" />
  <path
     id="path69"
     fill="#c4c2c2"
     d="M1141.69 584.952c51.02-15.454 52.81 1.537 101.25 4.413 20.41 1.212 55.38-2.962 77.37-3.18 38.97-.387 70.05 4.349 107.93 12.262 15.14 3.163 24.89 3.712 40.46 9.027 3.86 18.101 7.96 36.674 8.75 55.363 4.99 117.649-44.99 251.204-137.34 326.769-12.79 10.464-30.14 23.024-41.13 34.014-1.18.76-2.87 1.76-3.96 2.65-14.19 9.62-27.86 20-40.94 31.08-5.2-5.66-14.13-18.66-20.41-26.05 1.95-1.69 10.09-6.776 13.234-8.663 3.411-1.742 11.933-6.94 19.733-10.64 17.38-8.25 31.483-14.889 48.043-24.589-.69.733 12.766-9.33 16.167-12.025 20.29-15.75 43.523-33.741 59.603-56.254 25.42-39.308 51.92-90.212 63.18-136.582 8.9-36.589 19.15-109.983-1.21-143.585-3.79-6.256-21.94-28.699-27.89-30.413-70.78-20.384-143.02 7.259-215.24-7.947-5.48-1.174-10.88-2.621-16.31-4.017-8.35-2.605-16.84-5.363-25.43-6.951-8.54-1.579-17.22-1.906-25.63-4.018z" />
  <path
     id="path71"
     fill="#B2B2B1"
     d="M1192.98 596.585c4.4-2.167 13.08-.015 17.64 1.424l.56 1.443-1.89 1.15c-5.48-1.174-10.88-2.621-16.31-4.017z" />
  <path
     id="path72"
     fill="#FEFEFE"
     d="M983.508 991.115c120.202-13.062 229.132 55.625 259.942 174.225 1.42 4.49 2.83 9.24 4.33 13.68-11.14 15.17-23.12 24.46-30.83 42.23-8.05-.72-26.08-3.74-29.93 5.35 4.01 7.73 16.41 6.72 23.91 6.75-12.82 36.16-12.09 59.07 20.7 83.95-2.5 5.75-6.19 13.54-8.32 19.25-1.39 2.75-2.8 5.47-4.08 8.27 6.81 2.55 5.22-.09 9.59 1.55-5.25 8.78-14.4 24.01-20.71 31.66-6.95 8.42-15.18 16.06-22.41 25.14l.53 1.97c-2.23 2.69-14.22 12.01-14.17 11.65-1.01 6.61-5.24 8.49-11.96 13.61a224.398 224.398 0 0 1-64.6 33.48c-7.72 2.55-19.12 5.04-25.89 7.6-26.14 9.92-46.34 16.21-74.567 18.83a196.796 196.796 0 0 1-52.475-2.41c-12.476-2.2-22.385-5.95-33.995-10.84-.416-.17-3.946 1.97-4.526 2.36-6.329-3.44-8.581-4.59-15.39-6.91-12.457-4.97-24.874-14.68-33.921-17.78-38.482-29.65-74.299-67.63-92.261-113.54l-.626-1.19c3.031-6.98 33.562-3.48 40.926-1.06-2.826-3.58-5.077-7.02-7.61-10.79 1.8-.49.985-.32 3.024-.64l1.524-.23.999-2.39c-1.277-2.95-2.415-3.69-4.731-5.86 2.256-.19 2.166-.23 4.259-1.15l.923-2.68c41.576-15.82 43.998-44.54 31.844-82.07 7.164-.19 13.299.61 18.1-5.45-.041-8.99-16.359-7.86-22.02-7.76-7.015-10.28-12.728-21.36-19.435-31.78-5.099-7.92-11.607-16.26-17.345-23.83 25.912-96.11 94.593-154.53 191.201-173.195z" />
  <path
     id="path73"
     fill="url(#Gradient6)"
     d="M761.849 1340c3.031-6.98 33.562-3.48 40.926-1.06l4.219 6.39c4.863 9.73 23.542 34.8 31.223 42.88 10.078 11.13 18.694 18.48 30.124 28.01l7.922 6.9c15.577 10.78 34.291 23.24 52.563 28.5 7.477 2.92 19.16 6.51 25.267 10.54 30.516 9.3 78.007 10.83 109.727 5.24 31.43-5.53 71.04-25.69 97.71-42.95 6.51-4.21 16.19-15.3 24.17-21.28l.53 1.97c-2.23 2.69-14.22 12.01-14.17 11.65-1.01 6.61-5.24 8.49-11.96 13.61a224.398 224.398 0 0 1-64.6 33.48c-7.72 2.55-19.12 5.04-25.89 7.6-26.14 9.92-46.34 16.21-74.567 18.83a196.796 196.796 0 0 1-52.475-2.41c-12.476-2.2-22.385-5.95-33.995-10.84-.416-.17-3.946 1.97-4.526 2.36-6.329-3.44-8.581-4.59-15.39-6.91-12.457-4.97-24.874-14.68-33.921-17.78-38.482-29.65-74.299-67.63-92.261-113.54l-.626-1.19z" />
  <path
     id="path74"
     fill="#96302E"
     d="M761.849 1340c3.031-6.98 33.562-3.48 40.926-1.06l4.219 6.39c4.863 9.73 23.542 34.8 31.223 42.88 10.078 11.13 18.694 18.48 30.124 28.01l-1.406.12c-17.855 1.29-39.183-30.97-49.476-43-3.258-3.81-9.855-7.06-12.155-11.04-4.74-8.21-.641-12.9-8.504-19.9l-6.215-5.52c-6.778.33-13.984.6-20.726 1.22-5.105.46-4.996.12-7.384 3.09l-.626-1.19z" />
  <path
     id="path75"
     fill="#96302E"
     d="M876.263 1423.12c15.577 10.78 34.291 23.24 52.563 28.5 7.477 2.92 19.16 6.51 25.267 10.54-7.625.75-14.825-1.16-22.079-3.5-30.816-9.94-41.204-2.94-55.751-35.54z" />
  <path
     id="path76"
     fill="#401110"
     d="M941.327 1448.44c3.761.13 24.224 6.94 30.183 8.11 78.72 15.41 157.52-9.59 213.61-67.21 13.36-13.71 23.14-28.64 34.11-44.52 6.81 2.55 5.22-.09 9.59 1.55-5.25 8.78-14.4 24.01-20.71 31.66-6.95 8.42-15.18 16.06-22.41 25.14-7.98 5.98-17.66 17.07-24.17 21.28-26.67 17.26-66.28 37.42-97.71 42.95-31.72 5.59-79.211 4.06-109.727-5.24-6.107-4.03-17.79-7.62-25.267-10.54 9.629 1.54 12.183 2.82 21.934 1.5-3.5-.59-5.601-1.48-8.893-2.67l-.54-2.01z" />
  <path
     id="path77"
     fill="#240403"
     d="M838.217 1388.21c3.301-.68 3.199-.79 6.494-.36 9.479 6.43 20.813 22.27 28.648 22.81 8.949 5.65 18.66 13.39 27.457 18.48 12.379 7.16 27.83 12.94 40.511 19.3l.54 2.01c3.292 1.19 5.393 2.08 8.893 2.67-9.751 1.32-12.305.04-21.934-1.5-18.272-5.26-36.986-17.72-52.563-28.5l-7.922-6.9c-11.43-9.53-20.046-16.88-30.124-28.01z" />
  <path
     id="path78"
     fill="url(#Gradient5)"
     d="M806.994 1345.33c3.549-2.7 3.705-2.71 8.264-3.13 15.806 30.26 34.321 46.28 58.101 68.46-7.835-.54-19.169-16.38-28.648-22.81-3.295-.43-3.193-.32-6.494.36-7.681-8.08-26.36-33.15-31.223-42.88z" />
  <path
     id="path79"
     fill="#240403"
     d="M795.981 1319.03c2.256-.19 2.166-.23 4.259-1.15l.923-2.68c3.675 11.76 10.098 17.53 14.095 27-4.559.42-4.715.43-8.264 3.13l-4.219-6.39c-2.826-3.58-5.077-7.02-7.61-10.79 1.8-.49.985-.32 3.024-.64l1.524-.23.999-2.39c-1.277-2.95-2.415-3.69-4.731-5.86z" />
  <path
     id="path80"
     fill="#010101"
     d="M1094.16 1090.49c2.73 1.28 2.73 1.41 5.05 3.41 2.02 7.36-11.89 32.73-15.61 40.88-11.9 26.11-24.46 52.31-36.89 78.14-5.95 12.37-5.97 31.83-21.32 35.91-8.61 2.49-14.36.76-21.94-3.04-21.262-17.38-9.559-35.59 12.01-44.42l.38-.81c11.11-22.42 60.34-91.65 78.32-110.07z" />
  <path
     id="path81"
     fill="#B2B2B1"
     d="M1080.9 1118.9c-.66 9.75-36.25 80.64-43.09 94.43-2.52-1.39-5.72-2.81-8.36-4.07-3.5-1.92-4.94-2.07-5.86-5.03 4.05-13.08 46.88-71.1 57.31-85.33z" />
  <path
     id="path82"
     fill="#B2B2B1"
     d="M1012.88 1210.03c5.62-1.75 11.74-.3 15.98 3.78a16.155 16.155 0 0 1 4.4 15.82 16.174 16.174 0 0 1-11.74 11.49c-8.47 2.07-17.06-2.95-19.4-11.36-2.333-8.4 2.43-17.14 10.76-19.73z" />
  <path
     id="path83"
     fill="#010101"
     d="M1016.72 1396.42c12.24 5.9 6.94 34.01 7.03 45.48.02 2.94-3.45 4.67-5.65 6.13-2.74-1.16-2.57-1.11-4.71-3.21-3.42-7.89-2.21-26.22-2-35.31.2-8.21.13-8.4 5.33-13.09z" />
  <path
     id="path84"
     fill="#010101"
     d="M1015.63 1004.44c8.65 2.57 8.48 8.42 8.95 16.69.51 9.15.79 19.96-1.25 28.86 0 .01-3.09 3.42-3.39 3.75-13.94-2.64-7.65-23.39-8.93-34.24-.66-5.56.43-11.14 4.62-15.06z" />
  <path
     id="path85"
     fill="#010101"
     d="M1108.66 1378.62c4.17 2.98 18.17 28.07 20.01 33.16-1.16 3.33-1.61 2.82-4.85 5.47-5.97-5.75-17.01-24.31-20.12-32.18.98-4.08 1.06-3.05 4.96-6.45z" />
  <path
     id="path86"
     fill="#010101"
     d="M831.623 1111.6c8.231 3.51 27.054 14.74 34.426 20.07-.077 3.56-.566 3.02-3.046 6.57l-2.319.29c-8.153-4.74-22.517-13.05-29.571-18.64-1.166-3.66-.388-3.91.51-8.29z" />
  <path
     id="path87"
     fill="#010101"
     d="M1125.65 1036.62c2.18 1.54 4.48 3.44 3.84 6.4-2.07 9.63-11.25 24.8-18.45 31.11l-2.95-1.44c-.87-1.34-1.86-2.22-1.55-3.54 1.71-7.28 14.63-27.79 19.11-32.53z" />
  <path
     id="path88"
     fill="#010101"
     d="M860.859 1311.84c2.758.99 3.165.78 4.888 3.01l-.388 2.19c-5.385 6.58-22.708 14.81-30.899 19.18-2.587.56-3.959.72-5.925-.77 1.936-9.17 24.113-19.7 32.324-23.61z" />
  <path
     id="path89"
     fill="#010101"
     d="M1171.49 1314.37c7.7 1.1 26.35 13.07 31.75 19.12 1.86 2.08 1.37 4.94.93 7.4-7.74-2.07-26.94-12.77-32.81-19.14-1.98-2.14-.64-4.56.13-7.38z" />
  <path
     id="path90"
     fill="#010101"
     d="m907.154 1036.28 3.813.61c4.826 3.13 11.833 14.32 14.223 19.72 3.055 6.89 6.033 9.14 3.799 15.78l-3.94.02c-6.338-5.18-19.342-27.4-17.895-36.13z" />
  <path
     id="path91"
     fill="#010101"
     d="M925.408 1377.68c3.156.67 3.347 1.21 4.262 3.8-1.287 8.81-14.059 26.04-19.434 33.59-2.642-1.4-2.73-1.47-4.977-3.44-.102-5.36 15.656-29.54 20.149-33.95z" />
  <path
     id="path92"
     fill="#010101"
     d="M1201.65 1115.97c1.24-.2 2.06-.06 3.34-.01 1.95 2.89 1.55 1.34 1.2 4.84-4.9 6.51-21.61 14.35-29.41 18.48-4.04-.34-2.55.52-4.94-2l.1-2.78c3.6-5.72 22.91-15.1 29.71-18.53z" />
  <path
     id="path93"
     fill="#fefefe"
     d="M1225.79 1433.37c56.35-.68 103.33 13.47 144.64 53.01 6.07 5.81 14.81 14.72 13.14 23.65-9.34 8.06-33.005 19.708-44.836 25.288-47.34 22.27-69.565 31.916-119.135 48.566-23.338 5.585-64.699 9.576-83.029 15.216-10.14 34.35-20.95 68.5-32.44 102.42-7.09 20.78-30.42 99.94-64.2 87.44-23.46-8.67-46.115-46.05-58.461-68.08-19.831-42.47-23.215-69.99-17.036-115.15a953.223 953.223 0 0 1 4.287-24.92c3.035-10.96 5.943-21.25 7.952-32.46 1.267-7.07 1.634-14.25 2.855-21.02l.349-1.89c26.244 8.71 34.704 11.86 62.794 15.29-15.57-5.06-44.74-16.89-59.485-24.9 73.645 2.53 134.775-7.23 196.965-50.85 4.05-2.72 7.29-5.13 11.14-8.07 13.14-8.38 19.82-19.7 34.5-23.54z" />
  <path
     id="path94"
     fill="#282828"
     d="M1314.26 1024.95c7.2-5.25 11.79-10.84 17.67-17.41 7.78 8.7 13.98 12.68 21.95 19.74 5.82 5.17 12.35 20.5 17.8 27.09 32.04 50.87 35.95 81.27 32.78 141.03-1.6 30.17-12.43 52.84-31.63 77.32-1.44 1.83-5.676 6.87-7.296 8.33-1.12 1.01-5.784 6.43-7.934 8.08-18.27 14.04-49.52 30.56-73.22 28.97-15-1-32.86-5.92-46.48-11.87-3.71-2.24-7.55-6.77-10.43-9.73-8.99-9.22-14.2-21.58-12.64-34.46 3.3-27.3 18.02-50.38 37.42-69.16 5.12-4.96 9.99-13.81 15.23-19.05 9.51-10.36 48.65-50.12 38.94-65.01-6.58.7-12.93 12.82-16.45 18.25-1.9 2.84-5.47 7.56-6.54 10.49-1.92-6.36-4.31-12.59-6.61-18.82-5.27-13.49-11.82-25.93-18.46-38.76.41-6.23.82-7.17-2.89-11.83-1.54-3.15-3.56-6.2-3.18-9.53l1.79-1.27a480.532 480.532 0 0 1 40.94-31.08c1.09-.89 2.78-1.89 3.96-2.65 6.63 1.23 8.01-1.08 15.28 1.33z" />
  <path
     id="path95"
     fill="#010101"
     d="M1295.02 1026.27c1.96 2.79 3.67 5.38 5.93 7.94-10.773 8.479-25.351 19.916-27.599 21.329-2.055 1.638-3.695 2.48-5.978 4.289-1.788 1.768-3.558 3.95-7.293 7.272-2.51 1.76-1.08 1.22-4.61 1.05-1.54-3.15-3.56-6.2-3.18-9.53l1.79-1.27a480.532 480.532 0 0 1 40.94-31.08z" />
  <path
     id="path96"
     fill="#240403"
     d="M1255.47 1068.15c3.53.17 2.1.71 4.61-1.05 9.02 14.62 18.3 28.51 24.25 44.67 1.8 4.9 3.54 10.66 5.64 15.3-1.9 2.84-5.47 7.56-6.54 10.49-1.92-6.36-4.31-12.59-6.61-18.82-5.27-13.49-11.82-25.93-18.46-38.76.41-6.23.82-7.17-2.89-11.83z" />
  <path
     id="path97"
     fill="#19191A"
     d="M1295.02 1026.27c1.09-.89 2.78-1.89 3.96-2.65 6.63 1.23 8.01-1.08 15.28 1.33-4.18 1.02-11.34 5.49-13.31 9.26-2.26-2.56-3.97-5.15-5.93-7.94z" />
  <path
     id="path98"
     fill="#9A9A97"
     d="m1309.06 1154.17 1.4 1.29c3.17 14.29-30.48 43.77-41.64 47.13-4.78-5.06-4.33-10.3-.46-15.77 11.75-16.61 20.91-27.25 40.7-32.65z" />
  <path
     id="path99"
     fill="#9a9a97"
     d="M1250.3 1210.446c9.977 1.28 10.19 11.334 2.65 15.954-5.7-.22-7.27.45-9.99-4.77.2-5.7 2.334-10.699 7.34-11.184z" />
  <path
     id="path100"
     fill="#B33B39"
     d="M1000.03 941.604c45.37-.131 59.62-1.369 102.17 14.492 45.36 12.121 78.23 34.892 112.05 66.734 2.9-.62 5.77-1.33 8.63-2.12l10.79 10.59c6.28 7.39 15.21 20.39 20.41 26.05l-1.79 1.27c-.38 3.33 1.64 6.38 3.18 9.53 3.71 4.66 3.3 5.6 2.89 11.83 6.64 12.83 13.19 25.27 18.46 38.76 2.3 6.23 4.69 12.46 6.61 18.82-7.71 11.6-17.7 20.03-23.87 29.13-1.04 1.67-1.24 1.6-2.73 2.98-3.75.28-6.38-4.19-13.38-4.33-30.81-118.6-139.74-187.287-259.942-174.225-.009-1.078.128-.546-.508-1.566-18.658 1.725-40.552 10.427-58.501 16.331-6.744 2.21-14.389 8.75-21.214 9.57l-.551-1.21c8.22-16.381 70.483-24.174 77.342-29.986l-2.867-1.019c-50.817 13.981-90.935 26.585-129.997 65.285-4.417 5.15-9.093 10.81-13.625 15.78-5.591-6.71-5.221-7.3-12.131-12.74l4.415-2.88c10.142-10.74 22.793-21.62 34.119-31.16 6.674-5.62 18.084-12.86 23.819-18.714.338-4.541-1.741-6.355-3.488-10.325-1.164-2.644-1.681-2.088-5.067-3.123 2.554-2.583 2.32-2.508 5.685-3.8 5.751.381 9.317-1.825 14.508-4.162 4.745-3.109 14.391-6.355 19.823-8.458 24.668-9.553 44.611-16.56 71.156-19.135 2.118-.554 4.321-.853 6.49-1.219 1.896-1.534 5.283-5.141 7.114-6.98z" />
  <path
     id="path101"
     fill="#240403"
     d="M977.209 983.235c12.73-4.487 53.211-5.689 66.131-3.025 19.18 3.957 58.65 14.236 76.6 21.67 19.54 8.1 47.36 32.16 63.99 44.93l.83.99c9.72 11.53 22.68 22.35 31.2 35.3 5.96 9.06 12.08 19 16.84 28.79 7.11 20.51 15.85 35.96 26.76 54.8-1.04 1.67-1.24 1.6-2.73 2.98-3.75.28-6.38-4.19-13.38-4.33-30.81-118.6-139.74-187.287-259.942-174.225-.009-1.078.128-.546-.508-1.566-18.658 1.725-40.552 10.427-58.501 16.331-6.744 2.21-14.389 8.75-21.214 9.57l-.551-1.21c8.22-16.381 70.483-24.174 77.342-29.986l-2.867-1.019z" />
  <path
     id="path102"
     fill="#EA8F8E"
     d="M986.426 949.803c3.874-.202 7.432-.883 10.692 1.023 2.168 2.998 1.857 1.428 1.332 4.783-5.805 7.169-13.391 8.457-22.15 10.397-26.536 5.877-50.328 17.094-76.13 25.598-2.679-6.129-3.225-7.587-4.723-14.208 4.745-3.109 14.391-6.355 19.823-8.458 24.668-9.553 44.611-16.56 71.156-19.135z" />
  <path
     id="path103"
     fill="#96302E"
     d="M1183.93 1046.81c7.5-.08 28.02 27.93 33.05 34.57 5.84 7.7 11.65 21.65 18.7 27.82l1.2-.14.19-4.07 1.91 1.65c-.63 13.99 8.75 21.71 16.17 32.9 17.04-8.27 13.81-5.96 21.67-20.8 2.3 6.23 4.69 12.46 6.61 18.82-7.71 11.6-17.7 20.03-23.87 29.13-10.91-18.84-19.65-34.29-26.76-54.8-4.76-9.79-10.88-19.73-16.84-28.79-8.52-12.95-21.48-23.77-31.2-35.3l-.83-.99z" />
  <path
     id="path104"
     fill="#96302E"
     d="M1000.03 941.604c45.37-.131 59.62-1.369 102.17 14.492-17.05 1.855-23.74-6.492-40.38-7.871-21.86-1.812-46.33 1.291-67.853.41l-1.051-.051c1.896-1.534 5.283-5.141 7.114-6.98z" />
  <path
     id="path105"
     fill="#240403"
     d="m1222.88 1020.71 10.79 10.59c6.28 7.39 15.21 20.39 20.41 26.05l-1.79 1.27c-.38 3.33 1.64 6.38 3.18 9.53 3.71 4.66 3.3 5.6 2.89 11.83-11.79-20.15-26.39-41.78-44.11-57.15 2.9-.62 5.77-1.33 8.63-2.12z" />
  <path
     id="path106"
     fill="#96302e"
     d="M1238.04 1322.32c13.35 4.76 20.81.74 36.99 7.89-5.77 17.31-18.247 42.007-29.63 57.43-9.01 16.91-10.57 22.39-20.7 35.04-1.16 3.07-2.72 5.8-1.96 8.79 1.03.69 1.95 1.42 3.05 1.9-14.68 3.84-21.36 15.16-34.5 23.54-3.85 2.94-7.09 5.35-11.14 8.07-3.83-2.15-7.95-1.52-12.44-1.46-3.47 1.98-6.24 3.76-10.05 5.1-15.51 9.21-43.9 25.23-62.28 25.23l-1.2.39c-4.91 1.61-14.31 6.64-16.69 7.13-27.54 5.67-73.36 7.46-100.449 3-24.158-4.57-36.079-7.75-58.845-16.14-6.287-3.24-8.649-4.31-14.149-8.81.58-.39 4.11-2.53 4.526-2.36 11.61 4.89 21.519 8.64 33.995 10.84a196.796 196.796 0 0 0 52.475 2.41c28.227-2.62 48.427-8.91 74.567-18.83 6.77-2.56 18.17-5.05 25.89-7.6a224.398 224.398 0 0 0 64.6-33.48c6.72-5.12 10.95-7 11.96-13.61-.05.36 11.94-8.96 14.17-11.65l-.53-1.97c7.23-9.08 15.46-16.72 22.41-25.14 6.31-7.65 15.46-22.88 20.71-31.66-4.37-1.64-2.78 1-9.59-1.55 1.28-2.8 2.69-5.52 4.08-8.27 6.17.02 8.94-3.04 12.96-6.87.91-2.49 1.26-4.77 1.77-7.36z" />
  <path
     id="path107"
     fill="#792C2B"
     d="m1218.45 1421.95 6.25.73c-1.16 3.07-2.72 5.8-1.96 8.79 1.03.69 1.95 1.42 3.05 1.9-14.68 3.84-21.36 15.16-34.5 23.54-3.85 2.94-7.09 5.35-11.14 8.07-3.83-2.15-7.95-1.52-12.44-1.46-3.47 1.98-6.24 3.76-10.05 5.1 5.2-5.71 16.68-10.81 18.82-16.25l-10.08 5.72c6.29-6.99 18.82-12.56 26.47-19.16 5.97-5.16 14.46-13.03 22.22-13.64l3.36-3.34z" />
  <path
     id="path108"
     fill="url(#Gradient4)"
     d="m1218.45 1421.95 6.25.73c-1.16 3.07-2.72 5.8-1.96 8.79 1.03.69 1.95 1.42 3.05 1.9-14.68 3.84-21.36 15.16-34.5 23.54l-1-2.43c1.8-3.72 2.03-3.9 1.69-7.87 9.53-7.1 15.74-12.02 23.11-21.32l3.36-3.34z" />
  <path
     id="path109"
     fill="#240403"
     d="M1191.98 1446.61c.34 3.97.11 4.15-1.69 7.87l1 2.43c-3.85 2.94-7.09 5.35-11.14 8.07-3.83-2.15-7.95-1.52-12.44-1.46 8.26-6.11 15.47-11.53 24.27-16.91z" />
  <path
     id="path110"
     fill="#792C2B"
     d="M977.041 1504.37c10.721-3.46 35.129 4.77 41.099-2.25-7.55-.44-15.09-.94-22.631-1.5 2.246-.13 15.601-.38 16.421-.59 18.98-5.01 31.25-2.01 48.69 2.24 5.47 1.33 23.86-8.75 34.76-8.42l-1.2.39c-4.91 1.61-14.31 6.64-16.69 7.13-27.54 5.67-73.36 7.46-100.449 3z" />
  <path
     id="path111"
     fill="#240403"
     d="M1245.4 1387.64c-2.6 19.12-10.57 22.39-20.7 35.04l-6.25-.73c8.01-10.41 18.36-25.15 26.95-34.31z" />
  <path
     id="path112"
     fill="#240403"
     d="M1223.31 1336.55c6.17.02 8.94-3.04 12.96-6.87-1.85 6.39-3.74 11.02-7.45 16.69-4.37-1.64-2.78 1-9.59-1.55 1.28-2.8 2.69-5.52 4.08-8.27z" />
  <path
     id="path113"
     fill="url(#Gradient3)"
     d="M1341.58 527.061c9.01-3.735 32.61-3.241 42.58-2.29 44.26 16.215 54.98 29.769 78.35 72.101-14.17-2.916-28.97-8.998-41.66-10.729 4.96-.163 5.89.159 9.37-3.366.46-8.534-18.88-17.005-26.09-19.437-39.89-13.468-78.22-9.411-118.43-1.135-16.18 3.33-27.23 8.469-43.05 2.135l-1.48-.583 1.03.076-.98.498-.44-.882 1.27.105 1.3.983.91-1.87-.98-1.296c3.82-2.271 48.89-18.46 55.73-20.981 9.88-2.25 23.17-7.727 35.36-10.634l7.21-2.695z" />
  <path
     id="path114"
     fill="#BA9BB6"
     d="M1299.01 540.39c9.88-2.25 23.17-7.727 35.36-10.634-5.67 6.427-18.43 4.965-21.64 8.813-2.95 3.542-.21 10.594-13.72 1.821z" />
  <path
     id="path115"
     fill="#19191a"
     d="M957.517 1527.93c.299-3.38.223-4.72 1.591-7.89 3.478-.94 1.621-.82 5.812.91 5.794 2.88 9.038 2.6 14.956 4.49l-.349 1.89c-1.221 6.77-1.588 13.95-2.855 21.02-2.009 11.21-4.917 21.5-7.952 32.46a953.223 953.223 0 0 0-4.287 24.92c-6.179 45.16-2.795 72.68 17.036 115.15-1.911 2.49-2.567 5.2-5.067 6.88l-1.817-.79c-5.153-7.66-10.801-18.786-14-24.806-2.774-5.051-3.574-6.816-5.788-10.984-2.825-5.071-4.08-7.256-5.772-10.93-10.447-26.74-9.532-80.53-3.935-107.7 3.023-14.67 8.94-31.68 12.427-44.62z" />
  <path
     id="path116"
     fill="#010101"
     d="M964.433 1605.73c-2.108-1.3-2.626-1.58-4.453-3.22-2.955-7.05-3.007-42.47-1.533-49.46 4.271-.9 2.561-1.37 5.576.26.725 5.02-5.533 16.27-2.287 23.32 1.229 2.67 4.137 3.09 6.984 4.18a953.223 953.223 0 0 0-4.287 24.92z" />
  <path
     id="path117"
     fill="#282828"
     d="M957.517 1527.93c.299-3.38.223-4.72 1.591-7.89 3.478-.94 1.621-.82 5.812.91-.59 3.19-.678 6.73-2.917 8.69-3.325-.33-1.896.26-4.486-1.71z" />
  <path
     id="path118"
     fill="url(#Gradient2)"
     d="m1243.28 561.371.98 1.296-.91 1.87-1.3-.983-1.27-.105.44.882.98-.498-1.03-.076 1.48.583c15.82 6.334 26.87 1.195 43.05-2.135 40.21-8.276 78.54-12.333 118.43 1.135 7.21 2.432 26.55 10.903 26.09 19.437-3.48 3.525-4.41 3.203-9.37 3.366-26.04-4.254-51.45-7.535-77.81-9.175-36.39-2.266-104.15 10.84-135.57-2.755 12.86-6.622 22.01-9.006 35.81-12.842z" />
  <path
     id="path119"
     fill="#343433"
     d="M1411.75 503.975c1.38 1.155 8.489-5.91 10.799-3.915 6.62 2.095 5.667 2.268 11.347 6.366 1.95 1.558 3.944 4.047 4.934 5.306 6.88 8.822 13.31 19.626 19.28 28.979 4.15 6.499 12.41 27.617 9.58 34.504l-1.1.402-2.11-2.274c-4.16-11.61-9.74-18.564-17.67-27.708-10.9-14.186-25.43-20.953-40.4-30.601 1.38-1.302 2.3-2.323 3.56-3.74 0 0 2.477-1.534 4.488-3.428-1.114-1.694-2.018-2.059-2.708-3.891z" />
  <path
     id="path120"
     fill="url(#Gradient1)"
     d="M771.863 1319.87c4.905-.74 16.638-1.5 22.083-2.32.678.49 1.356.99 2.035 1.48 2.316 2.17 3.454 2.91 4.731 5.86l-.999 2.39-1.524.23c-2.039.32-1.224.15-3.024.64 2.533 3.77 4.784 7.21 7.61 10.79-7.364-2.42-37.895-5.92-40.926 1.06-3.269-4.93-6.13-13.89-8.233-19.77l18.247-.36z" />
  <path
     id="path121"
     fill="#401110"
     d="M771.863 1319.87c4.905-.74 16.638-1.5 22.083-2.32.678.49 1.356.99 2.035 1.48 2.316 2.17 3.454 2.91 4.731 5.86l-.999 2.39-1.524.23c-2.039.32-1.224.15-3.024.64.514.31-7.337-7.71-7.738-8.1-5.38.12-10.213-.01-15.564-.18z" />
  <path
     id="path123"
     fill="#343433"
     d="M1411.75 503.975c-6.98-7.644-15.72-10.535-22.91-17.871-2.64-2.693-1.74-3.466-1.28-7.423-2.16-3.23-4.39-2.021-9.27-4.641l1.79-.957c24.86 8.186 19.99 12.506 39.57 24.75 2.5 1.35 5.8 3.46 5.8 3.46l-3.67 1.908c-4.07 2.177-3.16.952-4.92 4.559-1.51-.445-3.73-2.63-5.11-3.785z" />
  <path
     id="path124"
     fill="#401110"
     d="M854.736 1454.73c9.047 3.1 21.464 12.81 33.921 17.78 6.809 2.32 9.061 3.47 15.39 6.91 5.5 4.5 7.862 5.57 14.149 8.81-5.431-.9-6.532.09-11.946-2.21-16.635-3.54-41.382-16.74-51.514-31.29z" />
  <path
     id="path125"
     fill="#343433"
     d="M909.288 430.235c4.19 2.64 2.715 4.455 6.469 6.565-6.105 2.82-23.296 12.12-32.118 17.35-4.08-.91-2.726-.756-7.65-2.025l-5.75-3.48c10.361-5.231 27.79-13.902 39.049-18.41Z" />
  <path
     id="path126"
     fill="#19191A"
     d="M1425.38 537.058c8.42 5.931 10.88 10.614 21.43 8.577 7.93 9.144 13.51 16.098 17.67 27.708-7.81-3.726-15.69-14.611-22.58-20.59-4.55-3.947-14.34-11.096-16.52-15.695z" />
  <path
     id="path127"
     fill="#240403"
     d="M1238.04 1322.32c1.33-2.09 2.61-4.64 5.41-4.88 12.68-1.09 26.64-.22 31.58 12.77-16.18-7.15-23.64-3.13-36.99-7.89z" />
  <path
     id="path130"
     fill="#282828"
     d="M702.628 1308.98c15.229 4.27 26.591 8.11 42.29 10.51 6.599 25.08 19.81 54.6 36.244 74.97l-.359 1.74-.192.46c-14.986-15.84-31.83-34.055-45.154-48.928-4.625-4.488-6.449-6.55-10.407-11.62-1.59-2.04-5.346-5.99-7.849-8.99-6.206-7.45-10.745-9.242-14.573-18.142z" />
</svg>
